<?xml version="1.0" standalone="no"?>
<!DOCTYPE svg PUBLIC "-//W3C//DTD SVG 20010904//EN"
 "http://www.w3.org/TR/2001/REC-SVG-20010904/DTD/svg10.dtd">
<svg version="1.0" xmlns="http://www.w3.org/2000/svg"
 width="640.000000pt" height="640.000000pt" viewBox="0 0 640.000000 640.000000"
 preserveAspectRatio="xMidYMid meet">

<g transform="translate(0.000000,640.000000) scale(0.100000,-0.100000)"
fill="#000000" stroke="none" color="blue">
<path d="M2420 6366 c-292 -75 -587 -194 -829 -334 -92 -52 -316 -205 -390
-265 -42 -34 -89 -73 -106 -86 -72 -59 -348 -345 -425 -441 -312 -390 -541
-878 -640 -1369 l-30 -146 0 -511 c0 -507 0 -512 25 -635 266 -1310 1293
-2319 2604 -2560 94 -17 154 -19 581 -19 429 0 487 2 581 19 540 101 1020 319
1446 659 143 115 400 370 509 507 297 373 506 798 620 1259 l34 140 0 626 c0
586 -1 632 -20 715 -183 832 -701 1567 -1435 2036 -278 178 -609 320 -945 405
l-135 34 -660 -1 -660 -1 -125 -32z m1518 -1547 c199 -21 343 -68 472 -154
183 -122 272 -338 241 -581 -43 -326 -261 -580 -583 -679 -49 -15 -88 -33 -88
-39 0 -7 31 -16 73 -23 336 -54 535 -357 476 -723 -50 -313 -244 -574 -534
-719 -107 -53 -168 -74 -305 -109 l-105 -26 -785 -3 -786 -4 57 343 c32 189
59 356 61 372 l3 28 -277 -1 c-194 -1 -278 1 -278 9 0 11 46 286 56 333 l6 27
279 0 c153 0 279 2 279 5 0 4 145 877 268 1613 l57 342 658 0 c392 0 697 -4
755 -11z"/>
<path d="M3086 4273 c-14 -66 -116 -697 -116 -715 0 -20 6 -20 288 -15 231 4
300 8 352 22 156 42 266 130 328 263 24 51 27 69 27 163 0 100 -2 108 -30 154
-39 62 -86 99 -160 127 -57 21 -78 23 -372 26 l-311 3 -6 -28z"/>
<path d="M2885 3078 c-2 -13 -10 -54 -15 -93 -6 -38 -14 -80 -17 -92 l-5 -23
301 0 c166 0 301 -1 301 -2 -1 -24 -60 -351 -65 -358 -4 -6 -112 -10 -300 -10
l-293 0 -11 -62 c-6 -35 -13 -82 -17 -105 l-7 -43 309 0 c317 0 412 8 514 45
138 49 240 157 275 291 44 168 -9 325 -133 402 -105 64 -114 66 -489 70 l-342
3 -6 -23z"/>
</g>
</svg>
